# xmcd CD database file generated by Grip 3.0.0
# 
# Track frame offsets:
#       150
#       24603
#       51230
#       67653
#       100578
#       103803
#       119938
#       150088
#       172283
#       191025
#       193920
# 
# Disc length: 2954 seconds
# 
# Revision: 4
# Processed by: cddbd v1.4PL0 Copyright (c) Steve Scherf et al.
# Submitted via: Grip 3.0.0
# 
DISCID=990b880b
DTITLE=Bill Evans - Everybody Digs Bill Evans
DYEAR=1958
DGENRE=Jazz
TTITLE0=Minority
TTITLE1=Young and Foolish
TTITLE2=Lucky To Be Me
TTITLE3=Night and Day
TTITLE4=Epilogue
TTITLE5=Tenderly
TTITLE6=Peace Piece
TTITLE7=What is there to Say
TTITLE8=Oleo
TTITLE9=Epilogue
TTITLE10=Some Other Time
EXTD=
EXTT0=
EXTT1=
EXTT2=
EXTT3=
EXTT4=
EXTT5=
EXTT6=
EXTT7=
EXTT8=
EXTT9=
EXTT10=
PLAYORDER=
